<?xml version="1.0" standalone="no"?>
<!DOCTYPE svg PUBLIC "-//W3C//DTD SVG 20010904//EN"
 "http://www.w3.org/TR/2001/REC-SVG-20010904/DTD/svg10.dtd">
<svg version="1.0" xmlns="http://www.w3.org/2000/svg"
 width="200.000000pt" height="200.000000pt" viewBox="0 0 200.000000 200.000000"
 preserveAspectRatio="xMidYMid meet">
<metadata>
Created by potrace 1.15, written by Peter Selinger 2001-2017
</metadata>
<g transform="translate(0.000000,200.000000) scale(0.100000,-0.100000)"
fill="#000000" stroke="none">
<path d="M880 1852 c-86 -23 -146 -59 -208 -127 -70 -76 -93 -142 -100 -277
l-5 -108 104 -1 c104 -1 104 -1 67 -16 -41 -17 -50 -33 -18 -33 52 0 136 -44
191 -99 67 -68 94 -134 92 -228 -3 -185 -185 -336 -365 -303 -94 18 -196 91
-230 166 -20 44 -28 25 -28 -64 0 -178 60 -324 184 -447 107 -106 225 -161
390 -180 32 -4 56 -3 54 2 -48 98 -52 111 -52 183 0 90 22 147 84 214 63 69
137 101 230 101 98 0 169 -33 238 -111 l49 -55 17 42 c25 61 46 158 46 209 l0
46 -65 28 c-153 66 -230 237 -177 388 l20 57 -52 35 c-28 19 -67 41 -86 49
-34 15 -33 15 69 16 l104 1 -5 108 c-7 137 -30 202 -103 280 -113 122 -277
168 -445 124z m146 -196 c74 -63 -6 -182 -94 -139 -57 27 -67 89 -23 134 37
36 79 38 117 5z"/>
<path d="M595 1216 c-71 -32 -165 -171 -165 -244 0 -74 21 -123 75 -179 51
-52 120 -83 185 -83 106 0 216 83 246 186 38 133 -24 267 -149 319 -45 18
-151 19 -192 1z"/>
<path d="M1431 1167 c-32 -82 1 -208 70 -274 32 -30 106 -69 115 -60 2 2 -5
38 -16 81 -23 91 -65 173 -119 236 l-39 45 -11 -28z"/>
<path d="M1165 556 c-65 -30 -102 -68 -133 -135 -20 -44 -24 -64 -20 -115 5
-61 33 -131 62 -155 23 -19 111 3 208 51 58 29 102 62 155 113 40 40 73 80 73
89 0 50 -90 144 -158 164 -62 19 -131 15 -187 -12z"/>
</g>
</svg>
