<?xml version="1.0" standalone="no"?>
<!DOCTYPE svg PUBLIC "-//W3C//DTD SVG 20010904//EN"
 "http://www.w3.org/TR/2001/REC-SVG-20010904/DTD/svg10.dtd">
<svg version="1.0" xmlns="http://www.w3.org/2000/svg"
 width="1024.000000pt" height="1024.000000pt" viewBox="0 0 1024.000000 1024.000000"
 preserveAspectRatio="xMidYMid meet">
<metadata>
Created by potrace 1.15, written by Peter Selinger 2001-2017
</metadata>
<g transform="translate(0.000000,1024.000000) scale(0.100000,-0.100000)"
fill="#000000" stroke="none">
<path d="M4795 10113 c-175 -12 -458 -59 -660 -110 -116 -28 -376 -111 -389
-123 -5 -5 12 -60 39 -127 164 -411 293 -865 410 -1447 95 -473 192 -1176 236
-1702 13 -156 8 -179 -43 -217 -22 -17 -31 -18 -58 -8 -43 14 -49 23 -127 176
-352 695 -825 1349 -1362 1885 -191 190 -505 470 -528 470 -13 0 -194 -206
-304 -345 -139 -175 -363 -501 -428 -622 -11 -21 -2 -27 226 -141 666 -333
1189 -686 1681 -1135 184 -168 206 -203 162 -260 -24 -30 -60 -40 -96 -27 -15
6 -82 63 -148 127 -441 426 -1091 865 -1750 1184 -161 78 -170 81 -183 63 -32
-43 -275 -542 -346 -711 -310 -730 -546 -1535 -721 -2458 -169 -892 -278
-1895 -280 -2595 -1 -273 0 -288 22 -352 60 -173 205 -319 392 -395 132 -53
130 -53 1037 -53 l843 0 464 -365 c256 -200 473 -369 484 -376 16 -10 69 12
358 146 186 87 344 158 349 158 6 0 240 -142 522 -316 281 -175 516 -317 523
-317 7 0 242 142 523 317 282 174 517 316 522 316 6 0 163 -71 349 -158 289
-134 342 -156 358 -146 11 7 228 176 484 376 l464 365 843 0 c907 0 905 0
1037 53 187 76 332 222 392 395 22 64 23 79 22 352 -2 700 -111 1703 -280
2595 -175 923 -411 1728 -721 2458 -71 169 -314 668 -346 711 -13 18 -22 15
-183 -63 -657 -318 -1310 -759 -1750 -1184 -66 -64 -133 -121 -148 -127 -36
-13 -72 -3 -96 27 -44 57 -22 92 162 260 492 449 1015 802 1681 1135 228 114
237 120 226 141 -65 121 -289 447 -428 622 -110 139 -291 345 -304 345 -23 0
-338 -280 -528 -470 -220 -220 -326 -338 -524 -585 -311 -389 -614 -859 -839
-1301 -77 -152 -83 -161 -126 -175 -27 -10 -36 -9 -58 8 -51 38 -56 61 -43
217 44 528 141 1227 236 1702 117 585 246 1038 410 1447 27 67 44 122 39 127
-17 16 -322 108 -474 144 -168 38 -369 70 -550 86 -105 9 -557 11 -675 3z
m-479 -4510 c53 -127 24 -262 -78 -364 -82 -82 -168 -114 -295 -107 -141 6
-264 86 -322 208 -33 71 -37 192 -7 258 l19 42 334 0 334 0 15 -37z m2310 -5
c30 -66 26 -187 -7 -258 -95 -201 -373 -275 -563 -149 -141 94 -195 263 -132
413 l15 36 334 0 334 0 19 -42z m-1226 -864 c456 -79 734 -301 696 -557 l-7
-45 -32 9 c-51 15 -196 11 -257 -7 -138 -41 -246 -129 -303 -246 -19 -40 -37
-90 -40 -112 -4 -21 -8 -40 -10 -43 -14 -13 -210 -33 -327 -33 -117 0 -313 20
-327 33 -2 3 -6 22 -10 43 -3 22 -21 72 -40 112 -57 117 -165 205 -303 246
-61 18 -206 22 -256 7 -30 -9 -32 -7 -38 21 -18 90 -2 162 55 247 115 172 398
302 744 341 109 12 339 4 455 -16z m-1634 -336 c-22 -81 -28 -160 -18 -231 6
-40 14 -81 18 -90 4 -12 -9 -20 -68 -37 -612 -175 -1105 -475 -1322 -803 -92
-139 -125 -233 -145 -415 -7 -70 -14 -90 -38 -120 -39 -49 -87 -72 -147 -72
-70 0 -130 32 -161 84 -32 54 -34 152 -5 289 123 601 775 1113 1765 1388 126
35 129 35 121 7z m2844 -12 c788 -218 1382 -606 1635 -1069 81 -147 135 -343
135 -485 0 -96 -28 -149 -93 -181 -86 -42 -182 -22 -240 51 -24 30 -31 50 -38
120 -20 182 -53 276 -145 415 -217 328 -710 628 -1322 803 -59 17 -72 25 -68
37 4 9 12 50 18 90 10 71 4 150 -18 231 -4 12 -2 22 2 22 5 0 65 -15 134 -34z
m-1290 -1782 c668 -162 1229 -299 1246 -305 44 -14 75 -51 81 -96 4 -32 0 -45
-22 -71 -14 -17 -43 -36 -63 -42 -47 -13 -2510 -14 -2600 0 -211 30 -372 207
-372 410 0 236 219 426 465 402 28 -2 597 -137 1265 -298z"/>
<path d="M3421 9740 c-309 -152 -567 -326 -835 -560 -159 -140 -155 -134 -120
-163 16 -13 63 -52 104 -86 565 -471 1122 -1140 1560 -1874 45 -76 84 -137 86
-135 9 9 -63 554 -116 881 -91 561 -227 1144 -364 1561 -60 182 -151 422 -166
439 -3 4 -71 -24 -149 -63z"/>
<path d="M6661 9787 c-94 -237 -128 -330 -175 -477 -187 -590 -344 -1367 -441
-2180 -13 -112 -22 -206 -20 -208 2 -2 34 47 70 110 451 760 1000 1420 1579
1900 66 56 123 102 125 104 7 6 -38 51 -144 144 -263 229 -514 399 -809 547
-175 88 -175 88 -185 60z"/>
</g>
</svg>
